<?xml version="1.0" encoding="UTF-8"?>
<!DOCTYPE svg PUBLIC "-//W3C//DTD SVG 1.0//EN" "http://www.w3.org/TR/2001/REC-SVG-20010904/DTD/svg10.dtd">
<!-- Creator: CorelDRAW -->
<svg xmlns="http://www.w3.org/2000/svg" xml:space="preserve" width="25.3181mm" height="25.2851mm" version="1.0" style="shape-rendering:geometricPrecision; text-rendering:geometricPrecision; image-rendering:optimizeQuality; fill-rule:evenodd; clip-rule:evenodd"
viewBox="0 0 116.95 116.79"
 xmlns:xlink="http://www.w3.org/1999/xlink"
 xmlns:xodm="http://www.corel.com/coreldraw/odm/2003">
 <defs>
  <style type="text/css">
   <![CDATA[
    .fil0 {fill:#FFCC24}
   ]]>
  </style>
 </defs>
 <g id="Camada_x0020_1">
  <metadata id="CorelCorpID_0Corel-Layer"/>
  <path class="fil0" d="M58.47 0c32.29,0 58.47,26.18 58.47,58.47 0,10.52 -2.78,20.39 -7.64,28.92l-11.3 0c5.94,-8.1 9.45,-18.1 9.45,-28.92 0,-27.05 -21.93,-48.97 -48.97,-48.97 -27.05,0 -48.97,21.93 -48.97,48.97 0,10.82 3.51,20.81 9.45,28.92l-11.3 0c-4.86,-8.53 -7.64,-18.4 -7.64,-28.92 0,-32.29 26.18,-58.47 58.47,-58.47zm-16.5 37.41l40.4 21.23 -40.4 21.25 0 -42.48zm45.17 67.57c0,-3.73 0.97,-6.64 2.91,-8.72 1.94,-2.08 4.65,-3.12 8.12,-3.12 3.55,0 6.29,1.02 8.22,3.06 1.92,2.05 2.88,4.91 2.88,8.59 0,2.67 -0.42,4.86 -1.26,6.57 -0.84,1.71 -2.06,3.04 -3.64,4 -1.59,0.95 -3.57,1.43 -5.94,1.43 -2.41,0 -4.4,-0.41 -5.98,-1.23 -1.58,-0.83 -2.86,-2.13 -3.84,-3.9 -0.98,-1.77 -1.47,-4 -1.47,-6.68zm6.59 0.02c0,2.31 0.4,3.97 1.2,4.98 0.81,1.01 1.9,1.51 3.28,1.51 1.42,0 2.52,-0.5 3.3,-1.48 0.78,-0.99 1.17,-2.76 1.17,-5.32 0,-2.15 -0.41,-3.72 -1.22,-4.72 -0.82,-1 -1.91,-1.49 -3.3,-1.49 -1.33,0 -2.41,0.51 -3.21,1.51 -0.81,1.01 -1.21,2.68 -1.21,5.01zm-31.3 -11.48l20.07 0 0 5.66 -6.74 0 0 17.23 -6.59 0 0 -17.23 -6.74 0 0 -5.66zm-13 0l6.59 0 0 13.63c0,1.35 -0.2,2.63 -0.59,3.83 -0.39,1.2 -1.01,2.25 -1.85,3.15 -0.84,0.9 -1.72,1.53 -2.64,1.9 -1.28,0.51 -2.82,0.76 -4.62,0.76 -1.04,0 -2.17,-0.08 -3.4,-0.23 -1.23,-0.15 -2.26,-0.46 -3.08,-0.93 -0.82,-0.46 -1.58,-1.12 -2.26,-1.97 -0.69,-0.85 -1.15,-1.73 -1.41,-2.64 -0.41,-1.45 -0.61,-2.74 -0.61,-3.87l0 -13.63 6.59 0 0 13.96c0,1.25 0.32,2.22 0.96,2.92 0.65,0.7 1.54,1.05 2.68,1.05 1.13,0 2.02,-0.35 2.66,-1.04 0.64,-0.69 0.96,-1.67 0.96,-2.94l0 -13.96zm-26.48 19.12l-7.47 0 -1.07 3.77 -6.74 0 8.04 -22.89 7.22 0 8 22.89 -6.91 0 -1.07 -3.77zm-1.4 -4.95l-2.33 -8.23 -2.34 8.23 4.67 0z"/>
 </g>
</svg>
