<?xml version="1.0" encoding="UTF-8"?>
<!DOCTYPE svg PUBLIC "-//W3C//DTD SVG 1.0//EN" "http://www.w3.org/TR/2001/REC-SVG-20010904/DTD/svg10.dtd">
<!-- Creator: CorelDRAW -->
<svg xmlns="http://www.w3.org/2000/svg" xml:space="preserve" width="28.3461mm" height="28.3461mm" version="1.0" style="shape-rendering:geometricPrecision; text-rendering:geometricPrecision; image-rendering:optimizeQuality; fill-rule:evenodd; clip-rule:evenodd"
viewBox="0 0 192.43 192.43"
 xmlns:xlink="http://www.w3.org/1999/xlink"
 xmlns:xodm="http://www.corel.com/coreldraw/odm/2003">
 <defs>
  <style type="text/css">
   <![CDATA[
    .fil0 {fill:#FFCC24}
   ]]>
  </style>
 </defs>
 <g id="Camada_x0020_1">
  <metadata id="CorelCorpID_0Corel-Layer"/>
  <path class="fil0" d="M96.21 0c53.14,0 96.21,43.07 96.21,96.21 0,53.14 -43.07,96.21 -96.21,96.21 -53.14,0 -96.21,-43.07 -96.21,-96.21 0,-53.14 43.07,-96.21 96.21,-96.21zm-40.53 90.39l81.06 0c3.2,0 5.82,2.62 5.82,5.82l0 0c0,3.2 -2.62,5.82 -5.82,5.82l-81.06 0c-3.2,0 -5.82,-2.62 -5.82,-5.82l0 -0c0,-3.2 2.62,-5.82 5.82,-5.82zm40.53 -74.76c44.51,0 80.59,36.08 80.59,80.59 0,44.51 -36.08,80.58 -80.59,80.58 -44.51,0 -80.58,-36.08 -80.58,-80.58 0,-44.51 36.08,-80.59 80.58,-80.59z"/>
 </g>
</svg>
