<?xml version="1.0" encoding="UTF-8"?>
<!DOCTYPE svg PUBLIC "-//W3C//DTD SVG 1.0//EN" "http://www.w3.org/TR/2001/REC-SVG-20010904/DTD/svg10.dtd">
<!-- Creator: CorelDRAW -->
<svg xmlns="http://www.w3.org/2000/svg" xml:space="preserve" width="28.3461mm" height="28.3461mm" version="1.0" style="shape-rendering:geometricPrecision; text-rendering:geometricPrecision; image-rendering:optimizeQuality; fill-rule:evenodd; clip-rule:evenodd"
viewBox="0 0 142.25 142.25"
 xmlns:xlink="http://www.w3.org/1999/xlink"
 xmlns:xodm="http://www.corel.com/coreldraw/odm/2003">
 <defs>
  <style type="text/css">
   <![CDATA[
    .fil0 {fill:#FFCC24}
   ]]>
  </style>
 </defs>
 <g id="Camada_x0020_1">
  <metadata id="CorelCorpID_0Corel-Layer"/>
  <path class="fil0" d="M71.12 0c39.28,0 71.12,31.84 71.12,71.12 0,39.28 -31.84,71.12 -71.12,71.12 -39.28,0 -71.12,-31.84 -71.12,-71.12 0,-39.28 31.84,-71.12 71.12,-71.12zm-4.31 101.08l0 -25.65 -25.65 0c-2.37,0 -4.31,-1.94 -4.31,-4.31l0 -0c0,-2.37 1.94,-4.31 4.31,-4.31l25.65 0 0 -25.65c0,-2.37 1.94,-4.31 4.31,-4.31l0 0c2.37,0 4.31,1.94 4.31,4.31l0 25.65 25.65 0c2.37,0 4.31,1.94 4.31,4.31l0 0c0,2.37 -1.94,4.31 -4.31,4.31l-25.65 0 0 25.65c0,2.37 -1.94,4.31 -4.31,4.31l-0 0c-2.37,0 -4.31,-1.94 -4.31,-4.31zm4.31 -89.53c32.9,0 59.57,26.67 59.57,59.57 0,32.9 -26.67,59.57 -59.57,59.57 -32.9,0 -59.57,-26.67 -59.57,-59.57 0,-32.9 26.67,-59.57 59.57,-59.57z"/>
 </g>
</svg>
