<?xml version="1.0" encoding="UTF-8"?>
<!DOCTYPE svg PUBLIC "-//W3C//DTD SVG 1.0//EN" "http://www.w3.org/TR/2001/REC-SVG-20010904/DTD/svg10.dtd">
<!-- Creator: CorelDRAW -->
<svg xmlns="http://www.w3.org/2000/svg" xml:space="preserve" width="25.3181mm" height="25.2851mm" version="1.0" style="shape-rendering:geometricPrecision; text-rendering:geometricPrecision; image-rendering:optimizeQuality; fill-rule:evenodd; clip-rule:evenodd"
viewBox="0 0 132.09 131.92"
 xmlns:xlink="http://www.w3.org/1999/xlink"
 xmlns:xodm="http://www.corel.com/coreldraw/odm/2003">
 <defs>
  <style type="text/css">
   <![CDATA[
    .fil0 {fill:#FFCC24}
   ]]>
  </style>
 </defs>
 <g id="Camada_x0020_1">
  <metadata id="CorelCorpID_0Corel-Layer"/>
  <path class="fil0" d="M66.05 0c36.48,0 66.05,29.57 66.05,66.05 0,11.88 -3.14,23.03 -8.63,32.66l-12.77 0c6.71,-9.15 10.67,-20.44 10.67,-32.66 0,-30.55 -24.77,-55.32 -55.32,-55.32 -30.55,0 -55.32,24.77 -55.32,55.32 0,12.22 3.96,23.51 10.67,32.66l-12.77 0c-5.49,-9.63 -8.63,-20.78 -8.63,-32.66 0,-36.48 29.57,-66.05 66.05,-66.05zm-30.44 70.91l41.07 -47.06 -2.71 36.6 22.52 -0.51 -34.85 39.93 -5.69 0 2.18 -29.47 -22.52 0.51zm65.57 47.67c0,-4.22 0.96,-7.5 2.87,-9.85 1.92,-2.35 4.58,-3.53 8,-3.53 3.5,0 6.2,1.16 8.1,3.46 1.89,2.31 2.84,5.55 2.84,9.71 0,3.02 -0.41,5.49 -1.24,7.43 -0.83,1.93 -2.03,3.44 -3.59,4.51 -1.57,1.08 -3.52,1.61 -5.85,1.61 -2.37,0 -4.33,-0.46 -5.89,-1.39 -1.55,-0.93 -2.82,-2.4 -3.78,-4.41 -0.96,-2 -1.45,-4.52 -1.45,-7.54zm6.49 0.02c0,2.61 0.4,4.48 1.19,5.62 0.79,1.14 1.87,1.71 3.23,1.71 1.4,0 2.48,-0.56 3.25,-1.67 0.77,-1.12 1.15,-3.12 1.15,-6.01 0,-2.43 -0.4,-4.21 -1.2,-5.33 -0.8,-1.13 -1.89,-1.68 -3.26,-1.68 -1.31,0 -2.37,0.57 -3.16,1.71 -0.8,1.14 -1.2,3.03 -1.2,5.66zm-28.5 -12.96l12.18 0c2.03,0 3.59,0.62 4.67,1.85 1.09,1.23 1.63,2.76 1.63,4.59 0,1.53 -0.39,2.84 -1.17,3.93 -0.51,0.73 -1.27,1.31 -2.27,1.73 1.51,0.45 2.62,1.21 3.34,2.3 0.71,1.09 1.07,2.46 1.07,4.1 0,1.34 -0.26,2.55 -0.76,3.62 -0.51,1.07 -1.2,1.91 -2.08,2.54 -0.55,0.39 -1.37,0.67 -2.47,0.84 -1.46,0.23 -2.43,0.36 -2.91,0.36l-11.23 0 0 -25.85zm6.55 10.15l2.84 0c1.01,0 1.72,-0.22 2.12,-0.64 0.4,-0.43 0.6,-1.05 0.6,-1.87 0,-0.75 -0.2,-1.34 -0.6,-1.76 -0.4,-0.43 -1.09,-0.64 -2.08,-0.64l-2.88 0 0 4.91zm0 10.15l3.32 0c1.12,0 1.91,-0.25 2.37,-0.73 0.46,-0.49 0.69,-1.14 0.69,-1.96 0,-0.76 -0.23,-1.38 -0.68,-1.84 -0.46,-0.46 -1.25,-0.7 -2.39,-0.7l-3.3 0 0 5.24zm-29.35 5.56l0 -25.85 10.83 0c2.01,0 3.55,0.21 4.6,0.64 1.06,0.42 1.92,1.21 2.57,2.35 0.65,1.15 0.97,2.55 0.97,4.2 0,1.43 -0.25,2.67 -0.75,3.71 -0.49,1.05 -1.18,1.89 -2.06,2.54 -0.55,0.41 -1.32,0.75 -2.28,1.02 0.77,0.32 1.34,0.63 1.69,0.95 0.23,0.21 0.58,0.67 1.04,1.36 0.45,0.69 0.75,1.23 0.91,1.61l3.16 7.47 -7.35 0 -3.47 -7.88c-0.44,-1.02 -0.83,-1.68 -1.18,-1.99 -0.47,-0.4 -1,-0.6 -1.6,-0.6l-0.57 0 0 10.47 -6.52 0zm6.52 -15.35l2.75 0c0.29,0 0.87,-0.12 1.72,-0.35 0.43,-0.1 0.78,-0.37 1.05,-0.81 0.27,-0.44 0.41,-0.94 0.41,-1.5 0,-0.84 -0.22,-1.48 -0.65,-1.93 -0.43,-0.45 -1.24,-0.67 -2.43,-0.67l-2.86 0 0 5.27zm-17.4 -10.51l6.49 0 0 15.4c0,1.52 -0.2,2.97 -0.58,4.32 -0.39,1.36 -0.99,2.55 -1.82,3.56 -0.83,1.02 -1.69,1.73 -2.6,2.14 -1.26,0.57 -2.78,0.86 -4.55,0.86 -1.02,0 -2.14,-0.09 -3.35,-0.26 -1.21,-0.17 -2.22,-0.52 -3.04,-1.05 -0.81,-0.52 -1.56,-1.26 -2.23,-2.23 -0.68,-0.96 -1.14,-1.96 -1.39,-2.98 -0.4,-1.64 -0.6,-3.1 -0.6,-4.37l0 -15.4 6.49 0 0 15.77c0,1.41 0.32,2.51 0.95,3.3 0.64,0.79 1.52,1.19 2.64,1.19 1.11,0 1.99,-0.39 2.63,-1.17 0.63,-0.78 0.95,-1.88 0.95,-3.32l0 -15.77zm-36.39 0l19.78 0 0 6.39 -6.64 0 0 19.46 -6.49 0 0 -19.46 -6.64 0 0 -6.39z"/>
 </g>
</svg>
